<svg preserveAspectRatio="none" overflow="visible" style="display: block;" width="18" height="18" viewBox="0 0 18 18" fill="none" xmlns="http://www.w3.org/2000/svg">
<g id="svg" clip-path="url(#clip0_0_8)">
<path id="Vector" d="M8.56937 0.773434C7.28323 0.83496 6.08205 1.17774 4.96584 1.80176C3.87599 2.41407 2.97072 3.23585 2.25001 4.26709C1.51759 5.31006 1.0503 6.46729 0.848151 7.73877C0.786625 8.13428 0.755862 8.56055 0.755862 9.01758C0.755862 9.59472 0.810064 10.147 0.918467 10.6743C1.18214 11.9106 1.69191 13.0239 2.44777 14.0142C3.20363 15.0044 4.13967 15.7808 5.25588 16.3433C6.19339 16.8237 7.17777 17.1152 8.20903 17.2178C9.24028 17.3203 10.2598 17.2266 11.2676 16.9365C12.1202 16.6846 12.9068 16.3125 13.6275 15.8203C13.7945 15.7148 13.9131 15.6284 13.9835 15.561C14.0567 15.4937 14.1109 15.4277 14.1461 15.3633C14.1841 15.2959 14.209 15.2446 14.2208 15.2095C14.2325 15.1743 14.2383 15.1084 14.2383 15.0117C14.2383 14.915 14.2325 14.8462 14.2208 14.8052C14.2091 14.7642 14.1915 14.7188 14.168 14.6689C14.0948 14.5137 13.9864 14.4009 13.8428 14.3306C13.6993 14.2573 13.5425 14.2324 13.3726 14.2559C13.3023 14.2676 13.2393 14.2895 13.1837 14.3218C13.1309 14.3511 13.0445 14.4067 12.9244 14.4888C12.0015 15.1509 10.9395 15.5596 9.73833 15.7148C9.58305 15.7266 9.31938 15.7324 8.9473 15.7324C8.64554 15.7324 8.38919 15.7236 8.17826 15.7061C7.97025 15.6885 7.74027 15.6489 7.48832 15.5874C6.64749 15.3853 5.87551 15.041 5.17239 14.5547C4.47219 14.0684 3.88186 13.4707 3.40138 12.7617C2.81252 11.8975 2.4463 10.9189 2.30275 9.82617C2.27932 9.63574 2.26759 9.36035 2.26759 9C2.26759 8.63965 2.27931 8.35693 2.30275 8.15185C2.46095 7.02392 2.85793 6.00732 3.49367 5.10205C4.12942 4.19678 4.9512 3.48633 5.95902 2.97071C6.62991 2.63379 7.36819 2.41113 8.17386 2.30274C8.34085 2.27931 8.5972 2.26758 8.94291 2.26758C9.29155 2.26758 9.55669 2.27343 9.73833 2.28515C10.5059 2.38183 11.231 2.59277 11.9136 2.91797C12.5992 3.24024 13.2115 3.67236 13.7505 4.21435C14.2925 4.75342 14.7276 5.35547 15.0557 6.02051C15.3868 6.68555 15.6007 7.40332 15.6973 8.17383C15.7208 8.37597 15.7325 8.73486 15.7325 9.25048C15.7325 9.68408 15.7266 9.95508 15.7149 10.0635C15.7032 10.1719 15.6549 10.2978 15.5699 10.4414C15.523 10.5352 15.4512 10.6362 15.3546 10.7446C15.2579 10.853 15.1671 10.938 15.0821 10.9995C14.8917 11.1314 14.6822 11.2119 14.4537 11.2412C14.2252 11.2705 14.0025 11.25 13.7857 11.1797C13.5718 11.1064 13.3741 10.9834 13.1924 10.8105C13.0137 10.6348 12.8877 10.4399 12.8145 10.2261C12.7911 10.1411 12.7794 10.0078 12.7793 9.82617L12.7618 7.9541C12.7501 6.53906 12.7325 5.8081 12.709 5.76123C12.6475 5.60303 12.5567 5.47998 12.4366 5.39209C12.3165 5.30127 12.1788 5.25586 12.0235 5.25586C11.9151 5.25586 11.8331 5.26465 11.7774 5.28223C11.7247 5.29981 11.6617 5.3335 11.5884 5.3833C11.5181 5.43018 11.4625 5.48145 11.4214 5.53711C11.3804 5.58984 11.3409 5.65869 11.3028 5.74366C11.2676 5.82569 11.25 5.8916 11.25 5.9414V6.01172L11.1622 5.9414C11.0772 5.87988 10.9498 5.80517 10.7798 5.71729C10.6128 5.62647 10.4634 5.55615 10.3316 5.50634C9.97123 5.36279 9.58451 5.28222 9.17143 5.26465C8.75834 5.24707 8.37162 5.28662 8.01127 5.3833C7.34916 5.57373 6.78372 5.90918 6.31497 6.38965C5.84914 6.87012 5.53274 7.43409 5.36575 8.08154C5.2925 8.36865 5.25588 8.6748 5.25588 9C5.25588 9.32519 5.2925 9.63135 5.36575 9.91846C5.52102 10.519 5.81106 11.0537 6.23587 11.5225C6.6636 11.9883 7.17044 12.3237 7.75638 12.5288C7.97317 12.6108 8.17093 12.668 8.34964 12.7002C8.53128 12.7295 8.74808 12.7441 9.00004 12.7441C9.29887 12.7441 9.56547 12.7178 9.79985 12.665C10.0342 12.6094 10.2891 12.5215 10.5645 12.4014C10.9249 12.2344 11.2735 11.9941 11.6104 11.6807L11.8082 11.5005L11.9532 11.6631C12.2754 12.0703 12.6797 12.3647 13.1661 12.5464C13.6524 12.7251 14.1504 12.7822 14.6602 12.7178C15.17 12.6504 15.6358 12.4556 16.0577 12.1333C16.6436 11.688 17.0216 11.0815 17.1915 10.314C17.2149 10.2056 17.2296 10.1016 17.2354 10.002C17.2413 9.89942 17.2442 9.65039 17.2442 9.25488C17.2442 8.85645 17.2384 8.56787 17.2266 8.38916C17.2149 8.20752 17.19 7.99072 17.1519 7.73877C16.9263 6.28857 16.3536 4.99072 15.4337 3.84521C14.5167 2.69678 13.3682 1.85303 11.9883 1.31396C11.1827 1.00342 10.3785 0.823243 9.57572 0.773434C9.16849 0.75 8.83304 0.75 8.56937 0.773434ZM9.34281 6.78515C9.69145 6.83496 10.0123 6.96533 10.3052 7.17627C10.5982 7.38428 10.8238 7.64355 10.982 7.9541C11.1021 8.19433 11.1797 8.42871 11.2149 8.65723C11.2501 8.88574 11.2501 9.11426 11.2149 9.34277C11.1417 9.81153 10.9424 10.2144 10.6172 10.5513C10.295 10.8853 9.89945 11.1006 9.4307 11.1973C9.02347 11.2793 8.62796 11.2515 8.24418 11.1138C7.86039 10.9761 7.53666 10.749 7.27298 10.4326C7.00931 10.1133 6.84671 9.75 6.78518 9.34277C6.75002 9.11426 6.75002 8.88574 6.78518 8.65723C6.85842 8.17676 7.06497 7.76367 7.40482 7.41797C7.74759 7.06933 8.15922 6.85839 8.63969 6.78515C8.86821 6.74999 9.10258 6.74999 9.34281 6.78515Z" fill="#B7B9BF"/>
</g>
<defs>
<clipPath id="clip0_0_8">
<rect width="18" height="18" fill="white"/>
</clipPath>
</defs>
</svg>
