<svg preserveAspectRatio="none" overflow="visible" style="display: block;" width="16" height="16" viewBox="0 0 16 16" fill="none" xmlns="http://www.w3.org/2000/svg">
<g id="svg">
<path id="Vector" d="M7.85551 1.32813C7.50394 1.34896 7.168 1.46614 6.84769 1.67969C6.76175 1.7448 6.668 1.83073 6.56644 1.9375C6.46488 2.04427 6.38805 2.13411 6.33597 2.20703C6.25003 2.33463 5.31643 3.95963 3.53517 7.08204C1.75391 10.2018 0.847661 11.7982 0.816415 11.8711C0.720064 12.0951 0.671885 12.3412 0.671877 12.6094C0.661462 12.7578 0.664068 12.8828 0.679694 12.9844C0.695321 13.0859 0.725268 13.2005 0.769535 13.3281C0.886724 13.6589 1.07813 13.9388 1.34375 14.168C1.60938 14.3971 1.91928 14.5495 2.27345 14.625C2.33595 14.6458 2.6771 14.6563 3.29689 14.6563H8.00003H12.8321C13.3555 14.6563 13.6589 14.6458 13.7422 14.625C14.1277 14.5391 14.4584 14.3568 14.7344 14.0781C15.1303 13.6849 15.3282 13.2161 15.3282 12.6719C15.3282 12.3516 15.2592 12.0534 15.1212 11.7773C15.0769 11.7018 14.1745 10.1237 12.4141 7.04297C10.6563 3.95963 9.74483 2.36458 9.67973 2.25782C9.54171 2.03386 9.35291 1.84245 9.11332 1.68359C8.87374 1.52213 8.62504 1.41406 8.36722 1.35937C8.18754 1.32812 8.01696 1.3177 7.85551 1.32813ZM8.2891 2.71875C8.36201 2.76303 8.42191 2.81511 8.46879 2.87499C8.51827 2.93229 9.44145 4.53386 11.2383 7.67969C13.0378 10.8255 13.948 12.431 13.9688 12.4961C14.0209 12.668 14.0014 12.8333 13.9102 12.9922C13.8217 13.151 13.6863 13.2578 13.504 13.3125C13.4519 13.3229 13.1264 13.3281 12.5274 13.3281H2.51173L2.38282 13.2656C2.23439 13.2005 2.12241 13.0885 2.04689 12.9297C2.01564 12.8542 2.00001 12.7656 2.00001 12.6641C2.00001 12.5625 2.01824 12.4753 2.05469 12.4023C2.09376 12.3268 2.9922 10.7448 4.75002 7.65625C6.51045 4.56771 7.41279 2.99219 7.45706 2.92969C7.543 2.8125 7.668 2.73307 7.83207 2.69141C7.99613 2.64713 8.14847 2.66146 8.2891 2.73438V2.71875ZM7.82425 5.35937C7.63154 5.42448 7.48701 5.54166 7.39066 5.71094L7.34378 5.80859V8.625C7.34378 8.76301 7.3568 8.86458 7.38284 8.92969C7.41149 8.99219 7.45706 9.05599 7.51956 9.1211C7.58467 9.1836 7.65628 9.23438 7.73441 9.27344C7.81514 9.3099 7.90368 9.32813 8.00003 9.32813C8.09639 9.32813 8.18362 9.3099 8.26175 9.27344C8.34248 9.23438 8.4141 9.1836 8.4766 9.1211C8.5417 9.05599 8.58728 8.99219 8.61332 8.92969C8.64197 8.86459 8.65629 8.76302 8.65629 8.625V5.80859L8.60941 5.71094C8.53389 5.57292 8.42712 5.47136 8.2891 5.40625C8.22399 5.375 8.13805 5.35677 8.03128 5.35157C7.92451 5.34635 7.8555 5.34896 7.82425 5.35937ZM7.88675 10.6875C7.74873 10.7083 7.62634 10.7721 7.51956 10.8789C7.36071 11.0404 7.30211 11.2331 7.34378 11.457C7.38545 11.681 7.50785 11.8411 7.71097 11.9375C7.78649 11.9688 7.88285 11.9844 8.00003 11.9844C8.19274 11.9844 8.3529 11.9206 8.48051 11.793C8.57686 11.6966 8.63545 11.5794 8.65629 11.4414C8.69796 11.2175 8.63806 11.026 8.4766 10.8672C8.31774 10.7057 8.12112 10.6458 7.88675 10.6875Z" fill="#EE4E4E"/>
</g>
</svg>
